<svg xmlns="http://www.w3.org/2000/svg" viewBox="0 0 64 64">
  <path d="M32 6C20 6 12 16 12 28c0 12 8 28 20 32 12-4 20-20 20-32C52 16 44 6 32 6z" fill="#EF4444"/>
  <path d="M32 6C20 6 12 16 12 28c0 8 4 18 10 26 2-2 6-8 6-16 0-6-2-10 0-16s6-10 4-16z" fill="#F87171" opacity="0.6"/>
  <path d="M26 20c0-4 3-8 6-8s6 4 6 8" fill="none" stroke="#FBBF24" stroke-width="2" stroke-linecap="round" opacity="0.8"/>
  <circle cx="28" cy="18" r="2" fill="#FDE68A" opacity="0.7"/>
  <circle cx="36" cy="22" r="1.5" fill="#FDE68A" opacity="0.5"/>
</svg>