<svg xmlns="http://www.w3.org/2000/svg" viewBox="0 0 64 64">
  <path d="M32 6C20 6 12 16 12 28c0 12 8 28 20 32 12-4 20-20 20-32C52 16 44 6 32 6z" fill="#22C55E"/>
  <path d="M32 6C20 6 12 16 12 28c0 8 4 18 10 26 2-2 6-8 6-16 0-6-2-10 0-16s6-10 4-16z" fill="#4ADE80" opacity="0.6"/>
  <path d="M26 22c1-3 4-5 6-4s3 3 5 4" fill="none" stroke="#BBF7D0" stroke-width="2" stroke-linecap="round" opacity="0.8"/>
  <circle cx="34" cy="18" r="2" fill="#DCFCE7" opacity="0.7"/>
  <circle cx="28" cy="26" r="1.5" fill="#DCFCE7" opacity="0.5"/>
</svg>