<svg xmlns="http://www.w3.org/2000/svg" viewBox="0 0 64 64">
  <path d="M32 6C20 6 12 16 12 28c0 12 8 28 20 32 12-4 20-20 20-32C52 16 44 6 32 6z" fill="#3B82F6"/>
  <path d="M32 6C20 6 12 16 12 28c0 8 4 18 10 26 2-2 6-8 6-16 0-6-2-10 0-16s6-10 4-16z" fill="#60A5FA" opacity="0.6"/>
  <path d="M24 22c2-2 5-3 8-2s5 3 6 5" fill="none" stroke="#BFDBFE" stroke-width="2" stroke-linecap="round" opacity="0.8"/>
  <circle cx="30" cy="20" r="1.5" fill="#DBEAFE" opacity="0.7"/>
  <circle cx="38" cy="24" r="1" fill="#DBEAFE" opacity="0.5"/>
</svg>